<svg width="73" height="73" viewBox="0 0 73 73" fill="none" xmlns="http://www.w3.org/2000/svg">
<path fill-rule="evenodd" clip-rule="evenodd" d="M11.6982 37.1986C11.6982 48.5972 19.3879 58.1998 29.8626 61.1019V54.8665H26.3092C25.4437 54.8665 24.604 54.572 23.9282 54.0313C23.4662 53.6617 23.0965 53.1895 22.8486 52.6523L21.2864 49.2676C21.1828 49.0431 21.0403 48.8386 20.8654 48.6638L19.7892 47.5876C19.5649 47.3633 19.5649 46.9998 19.7892 46.7756C19.9639 46.6008 20.2309 46.5575 20.452 46.668L22.1869 47.5355C22.6403 47.7622 23.0347 48.0913 23.3388 48.4969L23.5485 48.7764C24.4448 49.9714 25.8513 50.6747 27.3451 50.6747H30.3338C30.9328 49.0895 32.0652 47.7661 33.512 46.9235C26.609 45.9305 21.4791 42.1376 21.4791 36.7021C21.4791 34.142 22.6171 31.6074 24.5424 29.4918C24.3587 28.9464 23.9242 27.4526 23.9242 25.5241C23.9242 23.0789 24.387 21.9183 24.387 21.9183C24.387 21.9183 26.3694 22.031 28.4653 23.0789C30.3393 24.0159 31.0963 24.9528 31.2356 25.1407C33.0743 24.4937 35.0877 24.1268 37.1982 24.1268C39.3173 24.1268 41.3384 24.4967 43.1831 25.1485C43.3061 24.9805 44.0575 24.0297 45.9592 23.0789C48.0551 22.031 50.0375 21.9183 50.0375 21.9183C50.0375 21.9183 50.5003 23.0789 50.5003 25.5241C50.5003 27.4797 50.0534 28.9884 49.8745 29.5142C51.7874 31.6253 52.9174 34.1511 52.9174 36.7021C52.9174 42.1376 47.7875 45.9305 40.8845 46.9235C43.0669 48.1945 44.5339 50.5595 44.5339 53.2671V60.6697C54.2881 57.3316 61.301 48.0841 61.301 37.1986C61.301 23.5012 50.197 12.3972 36.4996 12.3972C22.8022 12.3972 11.6982 23.5012 11.6982 37.1986Z" fill="white"/>
</svg>
